<svg id="Capa_1" enable-background="new 0 0 512 512" height="512" viewBox="0 0 512 512" width="512" xmlns="http://www.w3.org/2000/svg"><g><path d="m294.5 56.152h-30l30 30v59.229h30v-59.229c0-16.569-13.432-30-30-30z" fill="#ffb34f"/><path d="m264.5 56.152h-47c-16.569 0-30 13.432-30 30v59.229h30v-59.229h77c0-16.569-13.432-30-30-30z" fill="#fac75a"/><path d="m126.729 86.152c-16.143 0-29.23 13.086-29.23 29.229l60 30v-59.229z" fill="#a9f8f7"/><path d="m385.27 86.152h-30.77v59.229l60-30c0-16.143-13.087-29.229-29.23-29.229z" fill="#a9f8f7"/><path d="m474.5 115.381h-30v343.583h30c16.569 0 30-13.431 30-30v-283.583c0-16.568-13.431-30-30-30z" fill="#fa6348"/><path d="m474.5 428.964-30-60 30-60v-163.583c0-16.569-13.431-30-30-30h-407c-16.569 0-30 13.431-30 30v283.583c0 16.569 13.431 30 30 30h407c16.569 0 30-13.432 30-30z" fill="#fc7c49"/><path d="m474.5 308.964v120h-30l-60-60 60-60z" fill="#fac75a"/><path d="m125.679 428.964 62.806-60-62.806-60h318.821v120z" fill="#fce06f"/><path d="m348.509 248.324c0-20.402-16.598-37-37-37s-37 16.598-37 37 16.598 37 37 37 37-16.598 37-37zm-59 0c0-12.131 9.869-22 22-22s22 9.869 22 22-9.869 22-22 22-22-9.869-22-22z"/><path d="m368.965 278.816 5.792-32.096 9.57 32.436c.026.089.054.177.083.265 1.211 3.609 4.575 6.025 8.378 6.025 3.866-.019 7.227-2.474 8.407-6.109.028-.086.055-.173.08-.26l9.238-32.407 6.158 32.221c.777 4.069 4.707 6.737 8.774 5.959 4.069-.777 6.736-4.706 5.959-8.774l-11.047-57.802c-.8-3.931-4.157-6.834-8.162-7.061-4.019-.22-7.667 2.281-8.905 6.097-.027.085-.054.171-.079.258l-10.523 36.917-10.914-36.992c-.026-.09-.054-.179-.084-.267-1.278-3.804-4.975-6.264-8.971-6.003-4.003.269-7.329 3.209-8.102 7.233l-10.414 57.695c-.736 4.076 1.972 7.977 6.049 8.713 4.078.734 7.977-1.97 8.713-6.048z"/><path d="m93.439 217.774-5.792 32.095-9.57-32.436c-.026-.089-.054-.177-.083-.265-1.211-3.609-4.574-6.025-8.378-6.025-3.868.02-7.228 2.475-8.407 6.11-.028.085-.054.172-.079.258l-9.238 32.408-6.158-32.222c-.777-4.069-4.701-6.735-8.774-5.959-4.069.777-6.736 4.706-5.959 8.774l11.047 57.802c.8 3.931 4.157 6.834 8.162 7.061.168.009.334.014.5.014 3.807 0 7.219-2.455 8.405-6.111.027-.085.054-.171.079-.258l10.524-36.917 10.914 36.993c.026.089.054.178.083.266 1.278 3.805 4.975 6.281 8.97 6.004 4.004-.269 7.33-3.208 8.103-7.233l10.414-57.695c.736-4.076-1.972-7.977-6.049-8.713-4.078-.733-7.978 1.973-8.714 6.049z"/><path d="m178.679 285.397h20.747c4.142 0 7.5-3.358 7.5-7.5s-3.358-7.5-7.5-7.5h-13.247v-51.697c0-4.142-3.358-7.5-7.5-7.5s-7.5 3.358-7.5 7.5v59.197c0 4.142 3.358 7.5 7.5 7.5z"/><path d="m243.566 226.2c4.434 0 8.71 1.305 12.365 3.774 3.433 2.319 8.095 1.415 10.413-2.017 2.319-3.433 1.416-8.095-2.017-10.413-6.144-4.15-13.323-6.344-20.761-6.344-20.47 0-37.123 16.653-37.123 37.124 0 20.47 16.653 37.123 37.123 37.123 8.184 0 15.531-2.69 21.245-7.78 1.119-.997 2.184-2.094 3.164-3.263 2.662-3.174 2.247-7.904-.926-10.566-3.175-2.662-7.905-2.247-10.566.926-.514.613-1.068 1.185-1.646 1.7-2.967 2.643-6.759 3.982-11.27 3.982-12.199 0-22.123-9.924-22.123-22.123s9.924-22.123 22.122-22.123z"/><path d="m150.416 226.2c4.142 0 7.5-3.358 7.5-7.5s-3.358-7.5-7.5-7.5h-24.736c-4.142 0-7.5 3.358-7.5 7.5v58.706c0 4.142 3.358 7.5 7.5 7.5h24.736c4.142 0 7.5-3.358 7.5-7.5s-3.358-7.5-7.5-7.5h-17.236v-14.353h15.413c4.142 0 7.5-3.358 7.5-7.5s-3.358-7.5-7.5-7.5h-15.413v-14.353z"/><path d="m473.633 226.278c4.142 0 7.5-3.358 7.5-7.5s-3.358-7.5-7.5-7.5h-24.736c-4.142 0-7.5 3.358-7.5 7.5v58.706c0 4.142 3.358 7.5 7.5 7.5h24.736c4.142 0 7.5-3.358 7.5-7.5s-3.358-7.5-7.5-7.5h-17.236v-14.353h15.412c4.142 0 7.5-3.358 7.5-7.5s-3.358-7.5-7.5-7.5h-15.412v-14.353z"/><path d="m218.485 404.153c.035 0 15.854-.07 20.215-.07 12.929 0 23.448-10.519 23.448-23.447 0-7.332-3.382-13.889-8.669-18.191 2.119-3.292 3.349-7.207 3.349-11.405 0-11.653-9.48-21.133-21.133-21.133h-17.209c-4.142 0-7.5 3.358-7.5 7.5v59.247c0 1.995.795 3.908 2.208 5.315 1.405 1.399 3.308 2.184 5.291 2.184zm7.5-59.247h9.709c3.382 0 6.133 2.751 6.133 6.133 0 3.381-2.751 6.132-6.133 6.132-.167 0-.332.005-.496.016h-9.213zm0 27.282h12.715c4.658 0 8.448 3.79 8.448 8.448s-3.79 8.447-8.448 8.447c-2.342 0-7.981.02-12.715.039z"/><path d="m271.376 403.662c3.871 1.477 8.204-.469 9.678-4.339l3.701-9.717h25.391l3.659 9.696c1.134 3.003 3.987 4.854 7.019 4.854.879 0 1.775-.156 2.646-.485 3.875-1.463 5.832-5.79 4.369-9.665l-22.045-58.415c-.026-.069-.053-.138-.081-.206-1.37-3.329-4.579-5.479-8.178-5.479-3.612.003-6.821 2.161-8.185 5.495-.023.056-.045.113-.067.17l-22.247 58.412c-1.473 3.871.469 8.205 4.34 9.679zm26.133-47.543 6.977 18.486h-14.017z"/><path d="m410.526 404.906c4.142 0 7.5-3.358 7.5-7.5v-15.12l21.266 20.517c1.456 1.404 3.332 2.103 5.207 2.103 1.964 0 3.927-.767 5.398-2.292 2.876-2.981 2.791-7.729-.19-10.605l-26.346-25.418 24.111-22.163c3.049-2.803 3.249-7.547.446-10.597-2.802-3.049-7.546-3.249-10.597-.446l-19.294 17.735v-12.961c0-4.142-3.358-7.5-7.5-7.5s-7.5 3.358-7.5 7.5v59.247c-.001 4.142 3.357 7.5 7.499 7.5z"/><path d="m367.864 404.906c8.183 0 15.53-2.691 21.247-7.782 1.12-.998 2.184-2.095 3.162-3.261 2.662-3.174 2.247-7.904-.926-10.566-3.174-2.661-7.905-2.247-10.566.927-.513.612-1.067 1.184-1.646 1.699-2.968 2.643-6.76 3.983-11.271 3.983-12.199 0-22.124-9.925-22.124-22.124s9.925-22.124 22.124-22.124c4.434 0 8.71 1.305 12.364 3.774 3.432 2.32 8.095 1.417 10.413-2.016 2.319-3.432 1.417-8.094-2.016-10.413-6.144-4.151-13.323-6.345-20.762-6.345-20.47 0-37.124 16.653-37.124 37.124s16.655 37.124 37.125 37.124z"/><path d="m474.5 106.324h-53.272c-3.472-16.668-18.274-29.23-35.957-29.23h-30.771c-4.142 0-7.5 3.358-7.5 7.5v21.73h-15v-21.73c0-20.678-16.822-37.5-37.5-37.5h-77c-20.678 0-37.5 16.822-37.5 37.5v29.23c0 4.142 3.358 7.5 7.5 7.5h287c12.407 0 22.5 10.093 22.5 22.5v283.583c0 12.407-10.093 22.5-22.5 22.5h-437c-12.407 0-22.5-10.093-22.5-22.5v-283.583c0-12.407 10.093-22.5 22.5-22.5h120c4.142 0 7.5-3.358 7.5-7.5v-29.23c0-4.142-3.358-7.5-7.5-7.5h-30.771c-17.683 0-32.487 12.562-35.96 29.23h-53.269c-20.678 0-37.5 16.822-37.5 37.5v283.583c0 20.678 16.822 37.5 37.5 37.5h437c20.678 0 37.5-16.822 37.5-37.5v-283.583c0-20.678-16.822-37.5-37.5-37.5zm-249.5 0v-14.23h62v14.23zm92 0h-15v-21.73c0-4.142-3.358-7.5-7.5-7.5h-77c-4.142 0-7.5 3.358-7.5 7.5v21.73h-15v-21.73c0-12.407 10.093-22.5 22.5-22.5h77c12.407 0 22.5 10.093 22.5 22.5zm45-14.23h23.271c9.347 0 17.333 5.933 20.394 14.23h-43.665zm-235.271 0h23.271v14.229h-43.666c3.061-8.297 11.049-14.229 20.395-14.229z"/><path d="m118.718 304.615c-1.14 2.845-.436 6.097 1.781 8.214l57.129 54.577-57.129 54.577c-2.216 2.117-2.921 5.369-1.781 8.214 1.141 2.844 3.897 4.709 6.961 4.709h348.821c4.142 0 7.5-3.358 7.5-7.5v-120c0-4.142-3.358-7.5-7.5-7.5h-348.821c-3.064 0-5.821 1.865-6.961 4.709zm348.282 10.291v105h-322.613l49.278-47.077c1.481-1.415 2.319-3.375 2.319-5.423s-.838-4.008-2.319-5.423l-49.278-47.077z"/></g></svg>