<svg id="Capa_1" enable-background="new 0 0 512 512" height="512" viewBox="0 0 512 512" width="512" xmlns="http://www.w3.org/2000/svg"><g><path d="m394.87 456h-277.74c-25.202 0-47.126-17.062-53.316-41.493l-15.155-59.823c-.305-1.204-.459-2.441-.459-3.684v-20c0-8.284 6.716-15 15-15h385.6c8.284 0 15 6.716 15 15v20c0 1.242-.154 2.479-.459 3.684l-15.155 59.823c-6.19 24.431-28.114 41.493-53.316 41.493z" fill="#ab633d"/><path d="m448.8 316h-192.8v140h138.87c25.202 0 47.126-17.062 53.316-41.493l15.155-59.823c.305-1.204.459-2.441.459-3.684v-20c0-8.284-6.716-15-15-15z" fill="#824c19"/><path d="m478.374 247.158c-7.756-51.308-33.082-98.408-71.917-133.401-11.579-10.434-24.109-19.553-37.371-27.277l-22.086 3.52-4.964-16.917c-22.475-9.307-46.443-14.946-71.036-16.58l-15 10.497-15-10.497c-24.593 1.634-48.561 7.273-71.036 16.58l-9.964 14.917-17.085-1.52c-13.262 7.724-25.792 16.843-37.371 27.277-38.836 34.993-64.161 82.093-71.918 133.401-20.439 10.832-33.626 32.15-33.626 55.642 0 34.848 28.351 63.2 63.2 63.2 19.294 0 36.598-8.693 48.2-22.365 11.601 13.672 28.906 22.365 48.2 22.365s36.598-8.693 48.2-22.365c11.602 13.672 28.906 22.365 48.2 22.365s36.598-8.693 48.2-22.365c11.602 13.672 28.906 22.365 48.2 22.365s36.598-8.693 48.2-22.365c11.602 13.672 28.906 22.365 48.2 22.365 34.849 0 63.2-28.352 63.2-63.2 0-23.492-13.187-44.81-33.626-55.642z" fill="#ffdc91"/><path d="m478.374 247.158c-7.756-51.308-33.082-98.408-71.917-133.401-11.579-10.434-24.109-19.553-37.371-27.277l-22.086 3.52-4.964-16.917c-22.475-9.307-46.443-14.946-71.036-16.58l-15 10.497v299c19.294 0 36.598-8.693 48.2-22.365 11.602 13.672 28.906 22.365 48.2 22.365s36.598-8.693 48.2-22.365c11.602 13.672 28.906 22.365 48.2 22.365 34.849 0 63.2-28.352 63.2-63.2 0-23.492-13.187-44.81-33.626-55.642z" fill="#fac063"/><path d="m256 166c8.284 0 15-6.716 15-15v-94.497c-4.977-.33-9.979-.503-15-.503s-10.023.173-15 .503v94.497c0 8.284 6.716 15 15 15z" fill="#fac063"/><path d="m271 151v-94.497c-4.977-.33-9.979-.503-15-.503v110c8.284 0 15-6.716 15-15z" fill="#f09040"/><path d="m186.001 176.004c1.704 0 3.436-.292 5.129-.909 7.785-2.833 11.798-11.441 8.965-19.226l-30.131-82.786c-9.292 3.848-18.33 8.318-27.049 13.397l28.99 79.65c2.217 6.092 7.969 9.874 14.096 9.874z" fill="#fac063"/><path d="m320.87 175.095c1.694.617 3.425.909 5.129.909 6.126 0 11.879-3.783 14.096-9.874l28.99-79.65c-8.719-5.079-17.757-9.549-27.049-13.397l-30.131 82.786c-2.834 7.785 1.18 16.393 8.965 19.226z" fill="#f09040"/></g></svg>