<?xml version="1.0" encoding="iso-8859-1"?>
<!-- Generator: Adobe Illustrator 19.0.0, SVG Export Plug-In . SVG Version: 6.00 Build 0)  -->
<svg version="1.1" id="Layer_1" xmlns="http://www.w3.org/2000/svg" xmlns:xlink="http://www.w3.org/1999/xlink" x="0px" y="0px"
	 viewBox="0 0 512.002 512.002" style="enable-background:new 0 0 512.002 512.002;" xml:space="preserve">
<path style="fill:#F4D35E;" d="M499.086,82.482c-3.261-5.978-9.527-9.691-16.352-9.691c-3.09,0-6.162,0.783-8.886,2.268
	l-130.64,71.259c-9.346,5.099-16.148,13.531-19.154,23.746c-3.004,10.215-1.851,20.988,3.247,30.333l2.705,4.962v39.355h88.085
	l39.638-21.622c4.363-2.379,7.539-6.315,8.939-11.081c1.402-4.766,0.864-9.795-1.516-14.158c-2.38-4.361-6.315-7.534-11.081-8.936
	c-1.719-0.506-3.491-0.762-5.267-0.762c-2.6,0-5.195,0.56-7.583,1.63l-0.966,0.001l-1.03,1.03l-9.732,5.404
	c-0.399,0.222-0.829,0.334-1.28,0.334c-0.759,0-1.77-0.359-2.33-1.369c-0.466-0.837-0.344-1.624-0.232-2.02
	c0.113-0.394,0.427-1.128,1.265-1.592l10.201-5.666l0.22-0.095l0.23-0.153l37.129-20.252c4.362-2.378,7.537-6.314,8.939-11.082
	c1.402-4.765,0.864-9.793-1.516-14.155c-3.26-5.978-9.527-9.692-16.353-9.692c-3.058,0-6.097,0.769-8.74,2.19l-0.116,0.054
	c0,0-0.2,0.111-0.23,0.128l-50.684,25.489c-0.376,0.19-0.775,0.286-1.187,0.286c-0.794,0-1.837-0.385-2.38-1.465
	c-0.658-1.31-0.129-2.91,1.179-3.568l50.764-25.53l37.289-20.341c4.363-2.379,7.539-6.315,8.939-11.081
	C502.004,91.872,501.465,86.845,499.086,82.482z"/>
<path style="fill:#EAC349;" d="M418.091,244.714l16.519-9.012v-20.185c0-11.977-9.745-21.722-21.722-21.722h-88.449
	c0.75,2.259,1.698,4.469,2.861,6.602l2.705,4.962v39.355h88.085V244.714z"/>
<path style="fill:#F4D35E;" d="M187.929,170.064c-3.005-10.214-9.807-18.647-19.154-23.746L38.133,75.059
	c-2.722-1.484-5.795-2.269-8.885-2.269c-6.825,0-13.091,3.714-16.352,9.693c-4.911,9.004-1.581,20.325,7.423,25.236l37.207,20.296
	l50.846,25.574c1.308,0.658,1.838,2.259,1.18,3.568c-0.543,1.08-1.585,1.465-2.38,1.465c-0.411,0-0.811-0.096-1.187-0.286
	l-50.659-25.478c0,0-0.306-0.162-0.372-0.193c-2.685-1.435-5.704-2.192-8.74-2.192c-6.825,0-13.091,3.714-16.352,9.693
	c-2.379,4.362-2.918,9.389-1.515,14.154c1.402,4.767,4.576,8.703,8.938,11.083l37.187,20.284l10.593,5.88
	c0.838,0.466,1.151,1.198,1.265,1.592c0.113,0.395,0.233,1.183-0.232,2.021c-0.56,1.009-1.571,1.368-2.33,1.368
	c-0.451,0-0.882-0.113-1.283-0.335l-10.573-5.869c-2.692-1.437-5.71-2.195-8.735-2.195c-1.776,0-3.548,0.256-5.267,0.762
	c-4.766,1.402-8.702,4.577-11.081,8.937c-2.379,4.362-2.918,9.39-1.516,14.157c1.402,4.766,4.577,8.702,8.938,11.081l39.639,21.622
	l16.458,2.802l71.627-7.913v-34.244l2.705-4.961C189.78,191.053,190.933,180.28,187.929,170.064z"/>
<path id="SVGCleanerId_0" style="fill:#F4D35E;" d="M115.473,442.396c-10.727,0-19.455-8.728-19.455-19.455V226.94
	c0-10.727,8.728-19.455,19.455-19.455H396.51c10.727,0,19.455,8.728,19.455,19.455v196.002c0,10.727-8.728,19.455-19.455,19.455
	H115.473V442.396z"/>
<g>
	<path id="SVGCleanerId_0_1_" style="fill:#F4D35E;" d="M115.473,442.396c-10.727,0-19.455-8.728-19.455-19.455V226.94
		c0-10.727,8.728-19.455,19.455-19.455H396.51c10.727,0,19.455,8.728,19.455,19.455v196.002c0,10.727-8.728,19.455-19.455,19.455
		H115.473V442.396z"/>
</g>
<g>
	<path style="fill:#EAC349;" d="M99.095,193.796c-11.977,0-21.722,9.745-21.722,21.722v20.185l16.519,9.011l16.458,2.802
		l71.627-7.913V205.36l2.705-4.961c1.164-2.133,2.111-4.344,2.861-6.603H99.095z"/>
	<path style="fill:#EAC349;" d="M133.129,422.942V226.94c0-10.727,8.728-19.455,19.455-19.455h-37.111
		c-10.727,0-19.455,8.728-19.455,19.455v196.002c0,10.727,8.728,19.455,19.455,19.455h37.111
		C141.856,442.396,133.129,433.669,133.129,422.942z"/>
	<path style="fill:#EAC349;" d="M396.51,207.485H115.473c-8.605,0-15.91,5.621-18.47,13.378l147.204,132.244
		c6.655,6.143,16.913,6.143,23.568,0l146.253-134.571C410.885,212.011,404.224,207.485,396.51,207.485z"/>
</g>
<path style="fill:#D8A32E;" d="M118.017,207.485h-2.544c-0.491,0-0.974,0.038-1.456,0.073c-0.501,0.037-0.994,0.098-1.483,0.173
	c-0.134,0.02-0.269,0.038-0.402,0.062c-0.49,0.086-0.974,0.192-1.45,0.314c-0.124,0.032-0.25,0.063-0.373,0.097
	c-0.477,0.132-0.947,0.283-1.409,0.45c-0.114,0.041-0.229,0.083-0.342,0.125c-0.465,0.178-0.921,0.373-1.367,0.584
	c-0.101,0.048-0.201,0.096-0.301,0.146c-0.45,0.222-0.891,0.461-1.32,0.716c-0.087,0.052-0.173,0.105-0.259,0.157
	c-0.433,0.267-0.856,0.548-1.265,0.847c-0.073,0.053-0.145,0.108-0.217,0.163c-0.412,0.31-0.814,0.634-1.2,0.975
	c-0.061,0.053-0.119,0.109-0.18,0.164c-0.388,0.351-0.762,0.713-1.12,1.094c-0.051,0.054-0.1,0.111-0.151,0.166
	c-0.356,0.387-0.699,0.787-1.025,1.2c-0.046,0.058-0.088,0.12-0.134,0.179c-0.319,0.417-0.623,0.843-0.908,1.284
	c-0.046,0.071-0.087,0.146-0.132,0.218c-0.273,0.436-0.533,0.88-0.772,1.337c-0.049,0.095-0.091,0.192-0.139,0.288
	c-0.221,0.442-0.433,0.89-0.62,1.35c-0.054,0.133-0.098,0.271-0.149,0.405c-0.165,0.432-0.324,0.865-0.459,1.31
	c-0.058,0.197-0.101,0.399-0.154,0.598c-0.105,0.394-0.214,0.789-0.294,1.192c-0.061,0.304-0.096,0.617-0.141,0.925
	c-0.047,0.311-0.106,0.62-0.137,0.936c-0.063,0.635-0.098,1.278-0.098,1.928v173.358l138.527-85.247L118.017,207.485z"/>
<path style="fill:#CE982C;" d="M234.545,315.051L118.017,207.485h-2.544c-0.492,0-0.975,0.038-1.457,0.073
	c-0.5,0.037-0.993,0.098-1.482,0.173c-0.054,0.008-0.108,0.017-0.164,0.024c-0.003,0-0.005,0-0.009,0.001
	c-0.077,0.012-0.154,0.022-0.23,0.035c-0.232,0.04-0.457,0.099-0.686,0.149c-0.254,0.054-0.51,0.1-0.76,0.164
	c-0.001,0-0.002,0-0.003,0.001h-0.001c-0.011,0.003-0.022,0.005-0.033,0.008c-0.067,0.017-0.135,0.034-0.202,0.052
	c-0.046,0.012-0.092,0.023-0.138,0.036c-0.477,0.132-0.947,0.283-1.409,0.45c-0.114,0.041-0.229,0.083-0.342,0.125
	c-0.465,0.178-0.921,0.373-1.367,0.584c-0.101,0.048-0.201,0.096-0.301,0.146c-0.45,0.222-0.891,0.461-1.32,0.716
	c-0.087,0.052-0.173,0.105-0.259,0.157c-0.433,0.267-0.856,0.548-1.265,0.847c-0.073,0.053-0.145,0.108-0.217,0.163l0,0
	c-0.001,0-0.001,0.001-0.002,0.001c-0.142,0.107-0.275,0.226-0.415,0.337c-0.264,0.208-0.531,0.413-0.783,0.636
	c-0.026,0.022-0.05,0.046-0.075,0.069c-0.009,0.007-0.017,0.015-0.026,0.022c-0.026,0.023-0.052,0.048-0.079,0.071
	c-0.373,0.337-0.732,0.687-1.078,1.051c0,0-0.001,0.001-0.002,0.002c-0.013,0.014-0.027,0.024-0.039,0.038
	c-0.053,0.056-0.103,0.114-0.155,0.171c-0.009,0.01-0.017,0.02-0.026,0.03l0,0c-0.004,0.005-0.009,0.011-0.013,0.016
	c-0.34,0.372-0.671,0.753-0.981,1.15c-0.046,0.06-0.089,0.121-0.135,0.181c-0.264,0.344-0.51,0.703-0.752,1.063
	c-0.005,0.008-0.012,0.017-0.018,0.026l0,0c-0.044,0.067-0.095,0.128-0.137,0.195c-0.022,0.035-0.041,0.07-0.064,0.105
	c-0.001,0.001-0.001,0.001-0.001,0.001c-0.022,0.038-0.045,0.075-0.068,0.112c-0.267,0.425-0.52,0.86-0.754,1.306
	c0,0-0.001,0.002-0.002,0.004c-0.005,0.01-0.011,0.018-0.016,0.027c-0.049,0.095-0.091,0.192-0.139,0.288
	c-0.221,0.442-0.433,0.89-0.62,1.35c-0.027,0.065-0.049,0.132-0.072,0.198c-0.028,0.069-0.05,0.139-0.077,0.209
	c-0.165,0.43-0.324,0.864-0.458,1.308c-0.058,0.197-0.101,0.399-0.154,0.598c-0.105,0.394-0.213,0.788-0.293,1.19
	c-0.06,0.3-0.095,0.608-0.139,0.913c-0.001,0.004-0.001,0.008-0.002,0.013c-0.047,0.311-0.106,0.62-0.137,0.936
	c-0.063,0.635-0.098,1.278-0.098,1.928v173.358l37.111-22.837v-106.64c0-6.752,7.994-10.317,13.018-5.805l68.992,61.98
	L234.545,315.051z"/>
<path style="fill:#D8A32E;" d="M415.867,225.012c-0.032-0.317-0.09-0.624-0.137-0.936c-0.046-0.309-0.081-0.621-0.141-0.925
	c-0.081-0.403-0.188-0.797-0.294-1.192c-0.053-0.2-0.096-0.402-0.154-0.598c-0.134-0.445-0.294-0.88-0.459-1.313
	c-0.051-0.133-0.094-0.27-0.148-0.402c-0.188-0.462-0.401-0.912-0.623-1.355c-0.047-0.094-0.088-0.189-0.136-0.282
	c-0.239-0.458-0.5-0.904-0.773-1.339c-0.045-0.071-0.086-0.146-0.132-0.216c-0.285-0.442-0.59-0.868-0.908-1.285
	c-0.046-0.06-0.088-0.12-0.134-0.179c-0.325-0.415-0.669-0.815-1.026-1.202c-0.05-0.054-0.098-0.109-0.148-0.163
	c-0.359-0.381-0.734-0.745-1.124-1.097c-0.058-0.053-0.117-0.107-0.176-0.161c-0.387-0.341-0.79-0.666-1.203-0.977
	c-0.071-0.053-0.141-0.106-0.213-0.158c-0.411-0.3-0.835-0.584-1.27-0.851c-0.084-0.051-0.168-0.103-0.252-0.153
	c-0.432-0.257-0.874-0.496-1.327-0.721c-0.098-0.048-0.196-0.096-0.294-0.142c-0.449-0.213-0.907-0.408-1.373-0.587
	c-0.111-0.043-0.222-0.082-0.335-0.122c-0.465-0.168-0.936-0.32-1.416-0.452c-0.121-0.033-0.245-0.064-0.367-0.095
	c-0.478-0.122-0.964-0.229-1.456-0.315c-0.131-0.022-0.264-0.04-0.396-0.061c-0.49-0.075-0.985-0.136-1.487-0.173
	c-0.482-0.036-0.963-0.073-1.454-0.073h-2.545l-116.53,107.563l138.527,85.247V226.94
	C415.965,226.289,415.93,225.646,415.867,225.012z"/>
<path style="fill:#CE982C;" d="M296.431,326.74L414.024,218.54c-0.015-0.03-0.027-0.061-0.041-0.09
	c-0.146-0.298-0.302-0.589-0.461-0.878c-0.101-0.181-0.203-0.359-0.309-0.536c-0.154-0.258-0.308-0.516-0.473-0.766
	c-0.183-0.275-0.375-0.543-0.571-0.808c-0.195-0.266-0.396-0.525-0.604-0.78c-0.224-0.274-0.451-0.547-0.69-0.809
	c-0.133-0.147-0.271-0.289-0.409-0.432c-0.267-0.274-0.539-0.543-0.822-0.801c-0.109-0.101-0.217-0.204-0.328-0.303
	c-0.376-0.329-0.764-0.644-1.165-0.946c-0.071-0.053-0.141-0.106-0.213-0.158c-0.411-0.3-0.835-0.584-1.27-0.851
	c-0.084-0.051-0.168-0.103-0.252-0.153c-0.432-0.257-0.874-0.496-1.327-0.721c-0.098-0.048-0.196-0.096-0.294-0.142
	c-0.449-0.213-0.907-0.408-1.373-0.587c-0.111-0.043-0.222-0.082-0.335-0.122c-0.465-0.168-0.936-0.32-1.416-0.452
	c-0.121-0.033-0.245-0.064-0.367-0.095c-0.478-0.122-0.964-0.229-1.456-0.315c-0.131-0.022-0.264-0.04-0.396-0.061
	c-0.49-0.075-0.985-0.136-1.487-0.173c-0.482-0.036-0.963-0.073-1.454-0.073h-2.545L277.436,315.051L296.431,326.74z"/>
<path style="fill:#DDB247;" d="M395.534,207.485H116.448l127.76,117.931c6.655,6.143,16.913,6.143,23.568,0L395.534,207.485z"/>
<path d="M508.417,77.393c-7.717-14.15-25.508-19.383-39.66-11.665l-130.641,71.259c-11.839,6.457-20.455,17.139-24.261,30.078
	c-3.235,10.998-2.647,22.503,1.567,32.979H196.56c4.212-10.476,4.801-21.982,1.567-32.979
	c-3.805-12.939-12.422-23.621-24.261-30.078L43.223,65.728c-14.15-7.72-31.942-2.486-39.66,11.665
	c-7.717,14.15-2.484,31.94,11.665,39.659l14.473,7.895c-3.704,2.523-6.882,5.937-9.17,10.133
	c-3.739,6.854-4.584,14.755-2.382,22.246c2.203,7.491,7.192,13.675,14.046,17.413l14.454,7.884
	c-3.77,2.573-6.903,6.021-9.151,10.143c-3.739,6.855-4.584,14.756-2.382,22.246c2.202,7.491,7.192,13.675,14.046,17.413l39.415,21.5
	v169.019c0,14.83,12.065,26.896,26.896,26.896H396.51c14.83,0,26.896-12.066,26.896-26.896V253.923l39.414-21.5
	c6.855-3.738,11.844-9.923,14.047-17.413c2.203-7.491,1.357-15.39-2.381-22.246c-2.249-4.123-5.382-7.569-9.152-10.143l14.454-7.884
	c6.855-3.738,11.844-9.923,14.047-17.414c2.202-7.491,1.356-15.39-2.382-22.244c-2.248-4.123-5.382-7.571-9.152-10.144l14.455-7.885
	c6.855-3.738,11.844-9.923,14.047-17.413C513.004,92.146,512.156,84.247,508.417,77.393z M373.785,215.988L255.991,324.72
	L138.197,215.988H373.785z M220.533,313.689l-116.011,71.392V226.94c0-5.788,4.518-10.53,10.211-10.914L220.533,313.689z
	 M88.577,226.94v8.821l-31.78-17.336c-3.115-1.7-5.383-4.51-6.385-7.915c-1.001-3.405-0.617-6.996,1.083-10.113
	c1.7-3.115,4.51-5.382,7.915-6.384c3.397-0.999,6.979-0.619,10.089,1.071l0.015,0.007l10.391,5.771
	c1.226,0.681,2.553,1.003,3.863,1.003c2.802,0,5.52-1.48,6.977-4.103c2.138-3.849,0.749-8.702-3.1-10.839l-10.437-5.795
	c-0.009-0.004-0.017-0.007-0.026-0.013c-0.01-0.005-0.018-0.012-0.028-0.017l0,0l-37.326-20.36c-3.115-1.7-5.383-4.511-6.384-7.916
	c-1.001-3.405-0.618-6.995,1.082-10.111c3.508-6.432,11.59-8.81,18.021-5.306l0.006,0.003c0.039,0.021,0.08,0.037,0.119,0.057
	c0.039,0.021,0.077,0.046,0.116,0.066l50.806,25.551c1.149,0.578,2.371,0.852,3.576,0.852c2.918,0,5.728-1.608,7.128-4.392
	c1.978-3.934,0.393-8.726-3.541-10.704L60.07,123.35l-37.206-20.297c-6.432-3.509-8.81-11.595-5.302-18.027
	c3.509-6.433,11.595-8.81,18.028-5.302l130.641,71.259c8.101,4.419,13.996,11.727,16.6,20.58c2.603,8.852,1.604,18.189-2.814,26.289
	l-1.196,2.192h-63.348C100.643,200.044,88.577,212.11,88.577,226.94z M407.461,385.081l-52.181-32.112
	c-3.144-1.935-7.205-1.458-9.815,1.152l0,0c-3.642,3.642-2.926,9.728,1.459,12.427l60.538,37.254v19.139
	c0,6.048-4.903,10.952-10.952,10.952H115.473c-6.048,0-10.952-4.903-10.952-10.952v-19.139l128.181-78.88l17.882,16.506
	c1.527,1.409,3.467,2.114,5.407,2.114c1.94,0,3.88-0.705,5.407-2.114l17.882-16.506l27.662,17.023
	c3.144,1.935,7.205,1.458,9.815-1.152l0,0c3.642-3.642,2.926-9.728-1.459-12.427l-23.849-14.677l105.8-97.662
	c5.693,0.384,10.211,5.126,10.211,10.914v158.14H407.461z M495.503,95.139c-1,3.405-3.269,6.216-6.385,7.915l-37.213,20.298
	l-50.683,25.489c-3.933,1.978-5.518,6.77-3.54,10.704c1.4,2.784,4.21,4.392,7.128,4.392c1.204,0,2.427-0.274,3.576-0.852
	l50.806-25.551c0.043-0.021,0.08-0.047,0.121-0.069c0.037-0.02,0.077-0.034,0.113-0.054c6.433-3.506,14.519-1.13,18.028,5.303
	c1.7,3.116,2.084,6.706,1.083,10.111c-1.001,3.406-3.269,6.217-6.385,7.916l-37.3,20.347c-0.01,0.005-0.018,0.01-0.027,0.015
	c-0.011,0.005-0.019,0.013-0.03,0.018c-0.007,0.003-0.015,0.006-0.022,0.011l-10.436,5.795c-3.85,2.138-5.237,6.99-3.1,10.839
	c1.456,2.624,4.174,4.103,6.976,4.103c1.308,0,2.637-0.323,3.863-1.003l10.381-5.764c0.001,0,0.002-0.001,0.003-0.001
	c3.117-1.7,6.707-2.084,10.112-1.083c3.405,1.001,6.216,3.269,7.916,6.384c1.7,3.117,2.083,6.708,1.082,10.113
	c-1,3.405-3.269,6.216-6.385,7.915l-31.779,17.335v-8.82c0-14.83-12.066-26.896-26.896-26.896h-63.348l-1.196-2.192
	c-4.418-8.1-5.418-17.437-2.814-26.289c2.604-8.852,8.499-16.161,16.6-20.58l130.64-71.259c6.434-3.506,14.518-1.13,18.028,5.302
	C496.119,88.142,496.504,91.734,495.503,95.139z"/>
<g>
</g>
<g>
</g>
<g>
</g>
<g>
</g>
<g>
</g>
<g>
</g>
<g>
</g>
<g>
</g>
<g>
</g>
<g>
</g>
<g>
</g>
<g>
</g>
<g>
</g>
<g>
</g>
<g>
</g>
</svg>
