<svg height="512pt" viewBox="0 -39 512.00004 512" width="512pt" xmlns="http://www.w3.org/2000/svg"><path d="m300.71875 325.332031-67.039062-53.984375c-3.992188-3.214844-9.347657-4.167968-14.203126-2.53125-4.855468 1.640625-8.539062 5.644532-9.769531 10.617188l-29.738281 120.457031c-1.636719 6.621094 1.402344 13.511719 7.390625 16.769531 5.570313 3.03125 11.605469 4.570313 17.9375 4.570313 10.921875 0 21.664063-4.574219 31.0625-13.226563l65.113281-59.953125c3.210938-2.957031 4.976563-7.167969 4.832032-11.53125-.144532-4.367187-2.183594-8.449219-5.585938-11.1875zm0 0" fill="#00c7ce"/><path d="m403.546875 96.277344c-4.382813-5.835938-12.324219-7.671875-18.820313-4.351563l-262.125 133.917969c-6.679687 3.410156-9.8125 11.230469-7.335937 18.308594l51.179687 146.359375c4.171876 11.933593 11.402344 20.972656 20.914063 26.148437 2.230469 1.214844 4.699219 1.824219 7.171875 1.824219 2.058594 0 4.117188-.421875 6.050781-1.273437 4.253907-1.875 7.398438-5.617188 8.511719-10.128907l28.800781-116.636719 164.578125-174.882812c5-5.3125 5.453125-13.449219 1.074219-19.285156zm0 0" fill="#1de8f1"/><path d="m504.09375 11.859375c-6.253906-7.648437-15.621094-11.859375-26.378906-11.859375-5.847656 0-12.042969 1.230469-18.410156 3.664062l-433.398438 165.441407c-23 8.777343-26.097656 21.949219-25.8984375 29.019531s4.0390625 20.046875 27.4999995 27.511719c.140626.042969.28125.085937.421876.125l97.367187 27.863281c3.652344 1.042969 7.566406.664062 10.953125-1.066406l185.089844-94.5625-107.992188 114.753906c-2.863281 3.042969-4.328125 7.140625-4.039062 11.3125.285156 4.167969 2.300781 8.027344 5.554687 10.648438l158.546875 127.667968c.070313.058594.144532.113282.214844.171875 8.964844 6.949219 18.75 10.625 28.308594 10.625h.003906c18.679688 0 33.546875-13.820312 37.878906-35.210937l71.011719-350.640625c2.851563-14.074219.460937-26.667969-6.734375-35.464844zm0 0" fill="#e7f0ef"/><path d="m504.09375 11.859375-182.757812 146.140625-107.988282 114.75c-2.863281 3.042969-4.328125 7.144531-4.039062 11.3125.285156 4.171875 2.300781 8.03125 5.554687 10.652344l158.546875 127.667968c.070313.054688.144532.113282.214844.167969 8.964844 6.953125 18.75 10.625 28.308594 10.628907h.003906c18.679688 0 33.546875-13.820313 37.878906-35.214844l71.011719-350.640625c2.851563-14.074219.460937-26.667969-6.734375-35.464844zm0 0" fill="#c5e1e6"/></svg>